<?xml version="1.0" encoding="utf-8"?>
<!-- Generator: Adobe Illustrator 24.1.2, SVG Export Plug-In . SVG Version: 6.00 Build 0)  -->
<svg version="1.1" id="Layer_1" xmlns="http://www.w3.org/2000/svg" xmlns:xlink="http://www.w3.org/1999/xlink" x="0px" y="0px"
	 viewBox="0 0 102.5 102.5" style="enable-background:new 0 0 102.5 102.5;" xml:space="preserve">
<style type="text/css">
	.st0{fill:url(#SVGID_1_);}
	.st1{fill:url(#SVGID_2_);}
	.st2{fill:url(#SVGID_3_);}
	.st3{fill:url(#SVGID_4_);}
	.st4{fill:url(#SVGID_5_);}
	.st5{fill:url(#SVGID_6_);}
	.st6{fill:url(#SVGID_7_);}
	.st7{fill:url(#SVGID_8_);}
	.st8{fill:url(#SVGID_9_);}
	.st9{fill:url(#SVGID_10_);}
	.st10{fill:url(#SVGID_11_);}
	.st11{fill:url(#SVGID_12_);}
	.st12{fill:url(#SVGID_13_);}
	.st13{fill:url(#SVGID_14_);}
</style>
<g>
	
		<linearGradient id="SVGID_1_" gradientUnits="userSpaceOnUse" x1="-0.4798" y1="27.2622" x2="101.7343" y2="27.2622" gradientTransform="matrix(1 0 0 -1 0 101.8898)">
		<stop  offset="1.502404e-03" style="stop-color:#DA8CFF"/>
		<stop  offset="1" style="stop-color:#9A55FF"/>
	</linearGradient>
	<path class="st0" d="M90,66.2v3l-16.3,9.4L50.8,91.8l-0.1-45.1l-0.1,45.1l-16.3-9.5V71.1l0,0v7.4l-6.5-3.8v3.9l-16.5-9.5v-3
		l-11.7,6.8l51.2,29.6l51-29.6L90,66.2z"/>
	
		<linearGradient id="SVGID_2_" gradientUnits="userSpaceOnUse" x1="11.1724" y1="43.9305" x2="50.5472" y2="43.9305" gradientTransform="matrix(1 0 0 -1 0 101.8898)">
		<stop  offset="1.502404e-03" style="stop-color:#DA8CFF"/>
		<stop  offset="1" style="stop-color:#9A55FF"/>
	</linearGradient>
	<path class="st1" d="M27.5,78.6v-3.9l0,0l-0.5-7.5l6.1,3.8v0.1h0.5l0.2,11.3l16.5,9.5l0.2-45.1l0,0L17,27.3l-5.6-3.2l-0.1,42.1v3
		L27.5,78.6z M47.2,86.2l-6.5-3.8v-7.5l6.5,3.8V86.2z M47.3,71.2l-6.5-3.8v-7.5l6.5,3.8V71.2z M47.3,48.6v7.5l-6.5-3.8v-7.5
		L47.3,48.6z M27.6,37.3l6.5,3.8v7.5l-6.5-3.8L27.6,37.3z M34.1,56.1v7.5l-6.5-3.8v-7.5L34.1,56.1z M14.6,29.7l6.5,3.8V41l-6.5-3.8
		V29.7z M14.5,44.7l6.5,3.8V56l-6.5-3.8V44.7z M21,63.6v7.5l-6.5-3.8v-7.5L21,63.6z"/>
	
		<linearGradient id="SVGID_3_" gradientUnits="userSpaceOnUse" x1="53.8607" y1="51.4152" x2="60.4314" y2="51.4152" gradientTransform="matrix(1 0 0 -1 0 101.8898)">
		<stop  offset="1.502404e-03" style="stop-color:#DA8CFF"/>
		<stop  offset="1" style="stop-color:#9A55FF"/>
	</linearGradient>
	<path class="st2" d="M60.4,44.8l-6.5,3.8v7.5l6.5-3.8V44.8z"/>
	
		<linearGradient id="SVGID_4_" gradientUnits="userSpaceOnUse" x1="66.9544" y1="58.9458" x2="73.5197" y2="58.9458" gradientTransform="matrix(1 0 0 -1 0 101.8898)">
		<stop  offset="1.502404e-03" style="stop-color:#DA8CFF"/>
		<stop  offset="1" style="stop-color:#9A55FF"/>
	</linearGradient>
	<path class="st3" d="M67,48.6l6.5-3.8v-7.5L67,41.1V48.6z"/>
	
		<linearGradient id="SVGID_5_" gradientUnits="userSpaceOnUse" x1="80.0483" y1="66.5682" x2="86.614" y2="66.5682" gradientTransform="matrix(1 0 0 -1 0 101.8898)">
		<stop  offset="1.502404e-03" style="stop-color:#DA8CFF"/>
		<stop  offset="1" style="stop-color:#9A55FF"/>
	</linearGradient>
	<path class="st4" d="M86.6,37.2v-7.5l-6.5,3.8V41L86.6,37.2z"/>
	
		<linearGradient id="SVGID_6_" gradientUnits="userSpaceOnUse" x1="53.9034" y1="36.354" x2="60.4731" y2="36.354" gradientTransform="matrix(1 0 0 -1 0 101.8898)">
		<stop  offset="1.502404e-03" style="stop-color:#DA8CFF"/>
		<stop  offset="1" style="stop-color:#9A55FF"/>
	</linearGradient>
	<path class="st5" d="M60.4,59.9l-6.5,3.8v7.5l6.5-3.8V59.9z"/>
	
		<linearGradient id="SVGID_7_" gradientUnits="userSpaceOnUse" x1="66.9961" y1="43.8846" x2="73.5624" y2="43.8846" gradientTransform="matrix(1 0 0 -1 0 101.8898)">
		<stop  offset="1.502404e-03" style="stop-color:#DA8CFF"/>
		<stop  offset="1" style="stop-color:#9A55FF"/>
	</linearGradient>
	<path class="st6" d="M67,56.1v7.5l6.5-3.8v-7.5L67,56.1z"/>
	
		<linearGradient id="SVGID_8_" gradientUnits="userSpaceOnUse" x1="80.0907" y1="51.507" x2="86.6564" y2="51.507" gradientTransform="matrix(1 0 0 -1 0 101.8898)">
		<stop  offset="1.502404e-03" style="stop-color:#DA8CFF"/>
		<stop  offset="1" style="stop-color:#9A55FF"/>
	</linearGradient>
	<path class="st7" d="M80.2,56l6.5-3.8v-7.5l-6.5,3.8V56z"/>
	
		<linearGradient id="SVGID_9_" gradientUnits="userSpaceOnUse" x1="53.9457" y1="21.2928" x2="60.5164" y2="21.2928" gradientTransform="matrix(1 0 0 -1 0 101.8898)">
		<stop  offset="1.502404e-03" style="stop-color:#DA8CFF"/>
		<stop  offset="1" style="stop-color:#9A55FF"/>
	</linearGradient>
	<path class="st8" d="M54,78.7v7.5l6.5-3.8v-7.5L54,78.7z"/>
	
		<linearGradient id="SVGID_10_" gradientUnits="userSpaceOnUse" x1="67.0387" y1="26.9407" x2="73.6164" y2="26.9407" gradientTransform="matrix(1 0 0 -1 0 101.8898)">
		<stop  offset="1.502404e-03" style="stop-color:#DA8CFF"/>
		<stop  offset="1" style="stop-color:#9A55FF"/>
	</linearGradient>
	<path class="st9" d="M67,71.2v11.3l6.5-3.8V67.4L67,71.2z"/>
	
		<linearGradient id="SVGID_11_" gradientUnits="userSpaceOnUse" x1="80.1326" y1="36.4458" x2="86.6993" y2="36.4458" gradientTransform="matrix(1 0 0 -1 0 101.8898)">
		<stop  offset="1.502404e-03" style="stop-color:#DA8CFF"/>
		<stop  offset="1" style="stop-color:#9A55FF"/>
	</linearGradient>
	<path class="st10" d="M80.2,63.6v7.5l6.5-3.8v-7.5L80.2,63.6z"/>
	
		<linearGradient id="SVGID_12_" gradientUnits="userSpaceOnUse" x1="50.3977" y1="90.262" x2="85.3874" y2="90.262" gradientTransform="matrix(1 0 0 -1 0 101.8898)">
		<stop  offset="1.502404e-03" style="stop-color:#DA8CFF"/>
		<stop  offset="1" style="stop-color:#9A55FF"/>
	</linearGradient>
	<path class="st11" d="M50.4,3.9l32.3,18.6l2.7-1.6l-35-20.2L50.4,3.9z"/>
	
		<linearGradient id="SVGID_13_" gradientUnits="userSpaceOnUse" x1="15.6451" y1="90.262" x2="50.4511" y2="90.262" gradientTransform="matrix(1 0 0 -1 0 101.8898)">
		<stop  offset="1.502404e-03" style="stop-color:#DA8CFF"/>
		<stop  offset="1" style="stop-color:#9A55FF"/>
	</linearGradient>
	<path class="st12" d="M18.3,22.5L50.4,3.9V0.7L15.6,20.9L18.3,22.5z"/>
	
		<linearGradient id="SVGID_14_" gradientUnits="userSpaceOnUse" x1="11.2753" y1="68.0376" x2="50.5813" y2="68.0376" gradientTransform="matrix(1 0 0 -1 0 101.8898)">
		<stop  offset="1.502404e-03" style="stop-color:#DA8CFF"/>
		<stop  offset="1" style="stop-color:#9A55FF"/>
	</linearGradient>
	<path class="st13" d="M50.6,46.8v-3.1L11.3,20.9v3.1l5.6,3.3L50.6,46.8z"/>
</g>
</svg>
