<?xml version="1.0" encoding="utf-8"?>
<!-- Generator: Adobe Illustrator 24.1.2, SVG Export Plug-In . SVG Version: 6.00 Build 0)  -->
<svg version="1.1" id="Layer_1" xmlns="http://www.w3.org/2000/svg" xmlns:xlink="http://www.w3.org/1999/xlink" x="0px" y="0px"
	 viewBox="0 0 720.6 154.6" style="enable-background:new 0 0 720.6 154.6;" xml:space="preserve">
<style type="text/css">
	.st0{fill:url(#SVGID_1_);}
	.st1{fill:url(#SVGID_2_);}
	.st2{fill:url(#SVGID_3_);}
	.st3{fill:url(#SVGID_4_);}
	.st4{fill:url(#SVGID_5_);}
	.st5{fill:url(#SVGID_6_);}
	.st6{fill:url(#SVGID_7_);}
	.st7{fill:url(#SVGID_8_);}
	.st8{fill:url(#SVGID_9_);}
	.st9{fill:url(#SVGID_10_);}
	.st10{fill:url(#SVGID_11_);}
	.st11{fill:url(#SVGID_12_);}
	.st12{fill:url(#SVGID_13_);}
	.st13{fill:url(#SVGID_14_);}
	.st14{fill:url(#SVGID_15_);}
	.st15{fill:url(#SVGID_16_);}
	.st16{fill:url(#SVGID_17_);}
	.st17{fill:url(#SVGID_18_);}
	.st18{fill:url(#SVGID_19_);}
	.st19{fill:url(#SVGID_20_);}
	.st20{fill:url(#SVGID_21_);}
</style>
<g>
	<linearGradient id="SVGID_1_" gradientUnits="userSpaceOnUse" x1="0.6562" y1="97.6887" x2="111.9438" y2="97.6887">
		<stop  offset="1.502404e-03" style="stop-color:#DA8CFF"/>
		<stop  offset="1" style="stop-color:#9A55FF"/>
	</linearGradient>
	<path class="st0" d="M99.2,88.5l0,3.3L81.4,102l-24.9,14.4l-0.1-49.1l-0.1,49.1l-17.8-10.3l0-12.3l0,0l0,8.1l-7.1-4.1l0,4.2
		L13.4,91.7l0-3.3L0.7,95.8l55.8,32.2l55.5-32.2L99.2,88.5z"/>
	<linearGradient id="SVGID_2_" gradientUnits="userSpaceOnUse" x1="13.388" y1="79.5062" x2="56.2628" y2="79.5062">
		<stop  offset="1.502404e-03" style="stop-color:#DA8CFF"/>
		<stop  offset="1" style="stop-color:#9A55FF"/>
	</linearGradient>
	<path class="st1" d="M31.2,102l0-4.2l0,0l-0.5-8.2l6.6,4.1v0.1l0.5,0l0.2,12.3L56,116.4l0.2-49.1l0,0L19.7,46.1l-6.1-3.5l-0.1,45.8
		l0,3.3L31.2,102z M52.6,110.3l-7.1-4.1l0-8.2l7.1,4.1L52.6,110.3z M52.7,93.9l-7.1-4.1l0-8.2l7.1,4.1L52.7,93.9z M52.7,69.3l0,8.2
		l-7.1-4.1l0-8.2L52.7,69.3z M31.3,57l7.1,4.1l0,8.2l-7.1-4.1L31.3,57z M38.4,77.5l0,8.2l-7.1-4.1l0-8.2L38.4,77.5z M17.1,48.7
		l7.1,4.1l0,8.2l-7.1-4.1L17.1,48.7z M17,65.1l7.1,4.1l0,8.2L17,73.3L17,65.1z M24.1,85.6l0,8.2L17,89.7l0-8.2L24.1,85.6z"/>
	<linearGradient id="SVGID_3_" gradientUnits="userSpaceOnUse" x1="59.8709" y1="71.3572" x2="67.0256" y2="71.3572">
		<stop  offset="1.502404e-03" style="stop-color:#DA8CFF"/>
		<stop  offset="1" style="stop-color:#9A55FF"/>
	</linearGradient>
	<path class="st2" d="M67,65.2l-7.1,4.1l0,8.2l7.1-4.1L67,65.2z"/>
	<linearGradient id="SVGID_4_" gradientUnits="userSpaceOnUse" x1="74.1285" y1="63.1272" x2="81.2774" y2="63.1272">
		<stop  offset="1.502404e-03" style="stop-color:#DA8CFF"/>
		<stop  offset="1" style="stop-color:#9A55FF"/>
	</linearGradient>
	<path class="st3" d="M74.2,69.3l7.1-4.1l0-8.2l-7.1,4.1L74.2,69.3z"/>
	<linearGradient id="SVGID_5_" gradientUnits="userSpaceOnUse" x1="88.3863" y1="54.8961" x2="95.5356" y2="54.8961">
		<stop  offset="1.502404e-03" style="stop-color:#DA8CFF"/>
		<stop  offset="1" style="stop-color:#9A55FF"/>
	</linearGradient>
	<path class="st4" d="M95.5,56.9l0-8.2l-7.1,4.1l0,8.2L95.5,56.9z"/>
	<linearGradient id="SVGID_6_" gradientUnits="userSpaceOnUse" x1="59.9173" y1="87.7383" x2="67.071" y2="87.7383">
		<stop  offset="1.502404e-03" style="stop-color:#DA8CFF"/>
		<stop  offset="1" style="stop-color:#9A55FF"/>
	</linearGradient>
	<path class="st5" d="M67,81.6l-7.1,4.1l0,8.2l7.1-4.1L67,81.6z"/>
	<linearGradient id="SVGID_7_" gradientUnits="userSpaceOnUse" x1="74.1739" y1="79.5085" x2="81.3239" y2="79.5085">
		<stop  offset="1.502404e-03" style="stop-color:#DA8CFF"/>
		<stop  offset="1" style="stop-color:#9A55FF"/>
	</linearGradient>
	<path class="st6" d="M74.2,77.5l0,8.2l7.1-4.1l0-8.2L74.2,77.5z"/>
	<linearGradient id="SVGID_8_" gradientUnits="userSpaceOnUse" x1="88.4325" y1="71.2763" x2="95.5818" y2="71.2763">
		<stop  offset="1.502404e-03" style="stop-color:#DA8CFF"/>
		<stop  offset="1" style="stop-color:#9A55FF"/>
	</linearGradient>
	<path class="st7" d="M88.5,77.4l7.1-4.1l0-8.2l-7.1,4.1L88.5,77.4z"/>
	<linearGradient id="SVGID_9_" gradientUnits="userSpaceOnUse" x1="59.9634" y1="104.1175" x2="67.1182" y2="104.1175">
		<stop  offset="1.502404e-03" style="stop-color:#DA8CFF"/>
		<stop  offset="1" style="stop-color:#9A55FF"/>
	</linearGradient>
	<path class="st8" d="M60,102.1l0,8.2l7.1-4.1l0-8.2L60,102.1z"/>
	<linearGradient id="SVGID_10_" gradientUnits="userSpaceOnUse" x1="74.2203" y1="97.9367" x2="81.3827" y2="97.9367">
		<stop  offset="1.502404e-03" style="stop-color:#DA8CFF"/>
		<stop  offset="1" style="stop-color:#9A55FF"/>
	</linearGradient>
	<path class="st9" d="M74.2,93.9l0,12.3l7.1-4.1l0-12.3L74.2,93.9z"/>
	<linearGradient id="SVGID_11_" gradientUnits="userSpaceOnUse" x1="88.4781" y1="87.6564" x2="95.6285" y2="87.6564">
		<stop  offset="1.502404e-03" style="stop-color:#DA8CFF"/>
		<stop  offset="1" style="stop-color:#9A55FF"/>
	</linearGradient>
	<path class="st10" d="M88.5,85.6l0,8.2l7.1-4.1l0-8.2L88.5,85.6z"/>
	<linearGradient id="SVGID_12_" gradientUnits="userSpaceOnUse" x1="56.1157" y1="29.0299" x2="94.2342" y2="29.0299">
		<stop  offset="1.502404e-03" style="stop-color:#DA8CFF"/>
		<stop  offset="1" style="stop-color:#9A55FF"/>
	</linearGradient>
	<path class="st11" d="M56.1,20.6l35.2,20.3l2.9-1.7l-38.1-22L56.1,20.6z"/>
	<linearGradient id="SVGID_13_" gradientUnits="userSpaceOnUse" x1="18.2582" y1="29.0234" x2="56.1247" y2="29.0234">
		<stop  offset="1.502404e-03" style="stop-color:#DA8CFF"/>
		<stop  offset="1" style="stop-color:#9A55FF"/>
	</linearGradient>
	<path class="st12" d="M21.2,40.9l34.9-20.3l0-3.4l-37.9,22L21.2,40.9z"/>
	<linearGradient id="SVGID_14_" gradientUnits="userSpaceOnUse" x1="13.5258" y1="53.2489" x2="56.3024" y2="53.2489">
		<stop  offset="1.502404e-03" style="stop-color:#DA8CFF"/>
		<stop  offset="1" style="stop-color:#9A55FF"/>
	</linearGradient>
	<path class="st13" d="M56.3,67.3l0-3.4L13.5,39.2l0,3.4l6.1,3.6L56.3,67.3z"/>
</g>
<g>
	<g>
		<linearGradient id="SVGID_15_" gradientUnits="userSpaceOnUse" x1="179.3696" y1="76.7758" x2="718.3613" y2="76.7758">
			<stop  offset="1.502404e-03" style="stop-color:#DA8CFF"/>
			<stop  offset="1" style="stop-color:#9A55FF"/>
		</linearGradient>
		<path class="st14" d="M211.8,17.9c7.1,0,13.8,1.2,20.1,3.6c6.3,2.4,11.7,5.8,16.2,10.1c4.5,4.4,8.1,9.6,10.6,15.7
			c2.5,6.1,3.8,12.7,3.8,19.9c0,7.1-1.3,13.7-3.8,19.8c-2.5,6.1-6,11.3-10.6,15.7c-4.5,4.4-9.9,7.8-16.2,10.2
			c-6.3,2.4-13,3.6-20.1,3.6h-32.5V17.9H211.8z M201.8,95.4h10.7c8.4,0,15.1-2.5,19.9-7.6c4.8-5.1,7.2-12,7.2-20.6
			c0-8.6-2.4-15.5-7.2-20.6c-4.8-5.1-11.4-7.6-19.9-7.6h-10.7V95.4z"/>
		<linearGradient id="SVGID_16_" gradientUnits="userSpaceOnUse" x1="179.3696" y1="76.7758" x2="718.3613" y2="76.7758">
			<stop  offset="1.502404e-03" style="stop-color:#DA8CFF"/>
			<stop  offset="1" style="stop-color:#9A55FF"/>
		</linearGradient>
		<path class="st15" d="M310.3,36.8c5.4,0,10.4,1,15.2,3c4.8,2,8.9,4.8,12.3,8.4c3.5,3.6,6.2,7.9,8.1,12.9c1.9,5,2.8,10.3,2.8,15.9
			c0,5.7-0.9,11.1-2.8,16.1c-1.9,5-4.6,9.4-8.1,13.1c-3.5,3.7-7.6,6.5-12.3,8.6c-4.7,2-9.7,3-15.1,3c-5.4,0-10.5-1-15.2-3
			c-4.8-2-8.9-4.9-12.4-8.6c-3.5-3.7-6.2-8-8.1-13.1c-1.9-5-2.9-10.4-2.9-16.1c0-5.6,1-10.9,2.9-15.9c1.9-5,4.6-9.3,8.1-12.9
			c3.5-3.6,7.6-6.4,12.3-8.4C299.9,37.9,305,36.8,310.3,36.8z M310.3,57.3c-4.6,0-8.3,1.8-11.2,5.5c-2.9,3.7-4.3,8.5-4.3,14.4
			c0,6,1.4,10.8,4.3,14.5c2.9,3.7,6.6,5.5,11.3,5.5c3.5,0,6.5-1.1,8.8-3.2c2.4-2.2,4-4.8,5-7.9c0.9-3.1,1.4-6.1,1.4-8.9
			c0-4.3-0.8-8.1-2.4-11.3c-1.6-3.2-3.6-5.5-5.9-6.7C314.9,58,312.6,57.3,310.3,57.3z"/>
		<linearGradient id="SVGID_17_" gradientUnits="userSpaceOnUse" x1="179.3696" y1="76.7758" x2="718.3613" y2="76.7758">
			<stop  offset="1.502404e-03" style="stop-color:#DA8CFF"/>
			<stop  offset="1" style="stop-color:#9A55FF"/>
		</linearGradient>
		<path class="st16" d="M385,79.4v37.1h-22.4V38.3H385v12.1c2-4.1,4.4-7.4,7.3-9.8c2.8-2.4,5.9-3.6,9.1-3.6c1.3,0,2.6,0.2,3.7,0.6
			c1.1,0.4,1.9,0.8,2.4,1.3v25.8c-3.5-1.9-6.6-2.8-9.2-2.8c-4,0-7.3,1.5-9.6,4.4C386.2,69.1,385,73.5,385,79.4z"/>
		<linearGradient id="SVGID_18_" gradientUnits="userSpaceOnUse" x1="179.3696" y1="76.7758" x2="718.3613" y2="76.7758">
			<stop  offset="1.502404e-03" style="stop-color:#DA8CFF"/>
			<stop  offset="1" style="stop-color:#9A55FF"/>
		</linearGradient>
		<path class="st17" d="M419.1,116.4V38.3h22.4v11.2c2-3.8,4.8-6.9,8.3-9.2c3.5-2.3,7.5-3.4,12-3.4c4.8,0,9.2,1.3,13.2,3.9
			c4,2.6,7.1,6.2,9.4,10.9c1.3-3.2,3.4-6,6.1-8.4c2.8-2.4,5.7-4.1,8.8-5c3.1-0.9,5.9-1.3,8.3-1.3c2.9,0,5.9,0.5,9.1,1.5
			c3.2,1,6.2,3,9.2,6c3,2.9,5.2,6.8,6.7,11.5c1.5,4.7,2.2,9.7,2.2,14.8v45.8h-22.4V73.9c0-5-1.1-8.9-3.3-11.9
			c-2.2-2.9-5.1-4.4-8.8-4.4s-6.6,1.5-8.8,4.4c-2.2,2.9-3.3,6.9-3.3,11.9v42.5h-22.4V73.9c0-5-1.1-8.9-3.3-11.9
			c-2.2-2.9-5.1-4.4-8.8-4.4s-6.6,1.5-8.8,4.4c-2.2,2.9-3.3,6.9-3.3,11.9v42.5H419.1z"/>
		<linearGradient id="SVGID_19_" gradientUnits="userSpaceOnUse" x1="179.3696" y1="76.7758" x2="718.3613" y2="76.7758">
			<stop  offset="1.502404e-03" style="stop-color:#DA8CFF"/>
			<stop  offset="1" style="stop-color:#9A55FF"/>
		</linearGradient>
		<path class="st18" d="M564.7,33.6c-1.7,0-3.5-0.5-5.6-1.4c-2.1-0.9-3.9-2.6-5.3-4.9c-1.5-2.3-2.2-4.9-2.2-7.7
			c0-1.9,0.4-3.9,1.3-6.1c0.9-2.2,2.4-4.1,4.6-5.7c2.2-1.6,4.6-2.4,7.3-2.4c1.7,0,3.5,0.5,5.6,1.4c2.1,0.9,3.8,2.6,5.3,4.9
			c1.5,2.3,2.2,5,2.2,7.9c0,1.8-0.4,3.8-1.3,6c-0.9,2.2-2.4,4.1-4.6,5.7C569.8,32.8,567.3,33.6,564.7,33.6z M553.5,116.4V38.3h22.4
			v78.2H553.5z"/>
		<linearGradient id="SVGID_20_" gradientUnits="userSpaceOnUse" x1="179.3696" y1="76.7758" x2="718.3613" y2="76.7758">
			<stop  offset="1.502404e-03" style="stop-color:#DA8CFF"/>
			<stop  offset="1" style="stop-color:#9A55FF"/>
		</linearGradient>
		<path class="st19" d="M595.5,116.4V57.9h-7V38.3h7v-1.7c0-9.5,2.3-16.7,6.9-21.5c4.6-4.8,10.9-7.2,18.9-7.2c2.6,0,5.1,0.3,7.5,0.9
			c2.3,0.6,4.2,1.4,5.5,2.5v19.8c-2.2-1.9-4.8-2.8-7.9-2.8c-5.5,0-8.3,3.2-8.3,9.7v0.3h16.6v19.6h-16.6v58.5H595.5z"/>
		<linearGradient id="SVGID_21_" gradientUnits="userSpaceOnUse" x1="179.3696" y1="76.7758" x2="718.3613" y2="76.7758">
			<stop  offset="1.502404e-03" style="stop-color:#DA8CFF"/>
			<stop  offset="1" style="stop-color:#9A55FF"/>
		</linearGradient>
		<path class="st20" d="M652.9,148.1l13.3-33.7l-30.4-76.2h24.7L677.8,85l18.5-46.7h22l-43.4,109.9H652.9z"/>
	</g>
</g>
</svg>
