<?xml version="1.0" encoding="UTF-8"?>
<svg width="1200pt" height="1200pt" version="1.1" viewBox="0 0 1200 1200" xmlns="http://www.w3.org/2000/svg">
 <g>
  <path d="m1062.6 770.93 0.10938 35.184-192.19 110.95-268.98 155.29-1.5-529.5-1.5117 529.5-192.12-110.93 0.375-132.47-0.0625-0.050782-0.25 87.711-76.789-44.328-0.13281 44.77-192.18-110.95 0.10938-35.676-137.45 79.871 601.93 347.53 598.07-347.58z"/>
  <path d="m329.52 917.06 0.13281-44.762-0.046875-0.046875-5.1016-88.355 71.496 44.355v0.66016l5.3984 0.046876 2.3047 132.47 193.45 110.93 2.1719-529.5 0.30078 0.023437-394.79-228.48-66.07-38.195-1.3555 494.23-0.097656 35.676zm230.72 89.016-76.895-44.387 0.25391-88.355 76.906 44.387zm0.50391-176.65-76.895-44.41 0.25391-88.285 76.895 44.41zm0.74609-264.96-0.25391 88.285-76.895-44.387 0.25391-88.297zm-230.58-133.13 76.836 44.363-0.25 88.297-76.836-44.363zm76.348 221.02-0.25391 88.309-76.848-44.363 0.25391-88.297zm-230.09-309.78 76.836 44.363-0.25391 88.297-76.836-44.363zm-0.50391 176.66 76.836 44.363-0.25391 88.297-76.836-44.363zm76.344 220.97-0.25391 88.355-76.832-44.363 0.25391-88.355z"/>
  <path d="m715.43 520.07-76.898 44.414 0.24219 88.273 76.906-44.391z"/>
  <path d="m792.52 564 76.836-44.363-0.23828-88.297-76.848 44.375z"/>
  <path d="m1023.1 430.88-0.25391-88.293-76.836 44.363 0.23828 88.293z"/>
  <path d="m715.92 696.67-76.887 44.398 0.24219 88.359 76.895-44.414z"/>
  <path d="m792.76 652.3 0.26172 88.379 76.836-44.375-0.23828-88.367z"/>
  <path d="m946.75 651.9 76.848-44.363-0.25391-88.355-76.836 44.363z"/>
  <path d="m639.53 917.72 0.25391 88.285 76.895-44.387-0.25-88.297z"/>
  <path d="m793.26 828.96 0.38281 132.47 76.848-44.367-0.38281-132.46z"/>
  <path d="m947 740.21 0.25391 88.285 76.848-44.363-0.26562-88.297z"/>
  <path d="m598.04 38.855 379.3 218.99 31.727-18.434-410.93-237.25z"/>
  <path d="m221.46 257.71 376.58-218.86 0.097656-36.695-408.31 237.29z"/>
  <path d="m599.96 542.88 0.09375-36.684-461.15-266.77-0.10547 36.672 66.203 38.301z"/>
 </g>
</svg>
